<?xml version="1.0" encoding="utf-8"?>
<!-- Generator: Adobe Illustrator 19.2.1, SVG Export Plug-In . SVG Version: 6.00 Build 0)  -->
<svg version="1.1" id="Layer_1" xmlns="http://www.w3.org/2000/svg" xmlns:xlink="http://www.w3.org/1999/xlink" x="0px" y="0px"
	 viewBox="0 0 16.6 16.8" style="enable-background:new 0 0 16.6 16.8;" xml:space="preserve">
<style type="text/css">
	.st0{fill:#FFFFFF;}
</style>
<g>
	<path class="st0" d="M8.4,4.6c0.8,0,1.7,0.2,2.3,0.7h5.9V4.2c0-2.3-1.9-4.2-4.2-4.2H4.2C1.9,0,0,1.9,0,4.2v1.2h6.1
		C6.8,5,7.6,4.6,8.4,4.6z M11.8,2.6c0-0.2,0.2-0.5,0.5-0.5h1.4c0.2,0,0.5,0.2,0.5,0.5V4c0,0.2-0.2,0.5-0.5,0.5h-1.4
		c-0.2,0-0.5-0.2-0.5-0.5V2.6z M12.4,8.6c0,2.1-1.8,3.9-3.9,3.9s-3.9-1.8-3.9-3.9c0-0.6,0.1-1.2,0.4-1.7H0v5.7
		c0,2.3,1.9,4.2,4.2,4.2h8.3c2.3,0,4.2-1.9,4.2-4.2V6.9H12C12.2,7.5,12.4,8,12.4,8.6z"/>
</g>
</svg>
