<?xml version="1.0" encoding="utf-8"?>
<!-- Generator: Adobe Illustrator 19.2.1, SVG Export Plug-In . SVG Version: 6.00 Build 0)  -->
<svg version="1.1" id="Layer_1" xmlns="http://www.w3.org/2000/svg" xmlns:xlink="http://www.w3.org/1999/xlink" x="0px" y="0px"
	 viewBox="0 0 18 17.8" style="enable-background:new 0 0 18 17.8;" xml:space="preserve">
<style type="text/css">
	.st0{fill:#FFFFFF;}
</style>
<path class="st0" d="M8.9,0C4,0,0,4,0,8.9c0,3.7,2.1,6.8,5.4,8.2c0-0.6,0-1.4,0.1-2c0.1-0.7,1.2-4.9,1.2-4.9S6.4,9.6,6.4,8.8
	c0-1.3,0.7-2.3,1.7-2.3c0.8,0,1.2,0.6,1.2,1.3c0,0.8-0.5,2-0.8,3.2c-0.2,1,0.5,1.7,1.4,1.7c1.7,0,2.9-2.1,2.9-4.8
	c0-1.9-1.3-3.4-3.7-3.4c-2.7,0-4.4,2-4.4,4.3c0,0.8,0.2,1.3,0.6,1.8c0.1,0.2,0.2,0.2,0.1,0.5l-0.1,0.7C5.2,12,5,12.1,4.8,12
	C3.6,11.5,3,10.1,3,8.6C3,6.1,5.1,3,9.4,3C12.8,3,15,5.5,15,8.1c0,3.4-1.9,6.1-4.8,6.1c-1,0-1.9-0.5-2.1-1.1c0,0-0.5,2-0.6,2.5
	c-0.2,0.7-0.6,1.4-1,1.9c0.8,0.2,1.7,0.4,2.5,0.4c4.9,0,8.9-4,8.9-8.9C17.8,4,13.8,0,8.9,0L8.9,0z"/>
</svg>
