<?xml version="1.0" encoding="utf-8"?>
<!-- Generator: Adobe Illustrator 19.2.1, SVG Export Plug-In . SVG Version: 6.00 Build 0)  -->
<svg version="1.1" id="Layer_1" xmlns="http://www.w3.org/2000/svg" xmlns:xlink="http://www.w3.org/1999/xlink" x="0px" y="0px"
	 viewBox="0 0 13.3 14" style="enable-background:new 0 0 13.3 14;" xml:space="preserve">
<style type="text/css">
	.st0{fill:#1A181A;}
</style>
<path class="st0" d="M13.1,12.7l-3-3c0.9-1,1.5-2.4,1.5-3.9C11.6,2.6,9,0,5.8,0C2.6,0,0,2.6,0,5.8c0,3.2,2.6,5.8,5.8,5.8
	c1.1,0,2.2-0.3,3.1-0.9l3,3.1c0.2,0.2,0.4,0.2,0.6,0.2c0.2,0,0.4-0.1,0.6-0.2C13.3,13.4,13.3,12.9,13.1,12.7L13.1,12.7z M1.6,5.8
	c0-2.3,1.9-4.2,4.2-4.2c2.3,0,4.2,1.9,4.2,4.2C10,8.1,8.1,10,5.8,10C3.5,10,1.6,8.1,1.6,5.8z"/>
</svg>
