<?xml version="1.0" encoding="utf-8"?>
<!-- Generator: Adobe Illustrator 19.2.1, SVG Export Plug-In . SVG Version: 6.00 Build 0)  -->
<svg version="1.1" id="Layer_1" xmlns="http://www.w3.org/2000/svg" xmlns:xlink="http://www.w3.org/1999/xlink" x="0px" y="0px"
	 viewBox="0 0 19.1 15.1" style="enable-background:new 0 0 19.1 15.1;" xml:space="preserve">
<style type="text/css">
	.st0{fill:#FFFFFF;}
</style>
<path class="st0" d="M19.1,1.8c-0.7,0.4-1.4,0.5-2.3,0.6c0.8-0.5,1.4-1.2,1.7-2.1c-0.7,0.5-1.5,0.7-2.5,1C15.3,0.5,14.3,0,13.2,0
	c-2.1,0-3.9,1.7-3.9,3.8c0,0.4,0,0.6,0.1,0.8C6.2,4.5,3.3,3,1.3,0.6C1,1.2,0.8,1.8,0.8,2.5c0,1.3,0.7,2.5,1.8,3.2
	C2,5.7,1.4,5.5,0.8,5.2l0,0c0,1.9,1.3,3.4,3.1,3.8C3.6,9.2,3.2,9.2,2.9,9.2c-0.2,0-0.5,0-0.7-0.1c0.5,1.5,1.9,2.6,3.7,2.6
	c-1.3,1.1-3,1.7-4.9,1.7c-0.4,0-0.6,0-1,0c1.8,1.1,3.8,1.8,5.9,1.8C13.1,15.1,17,9.3,17,4.2V3.7C18,3.2,18.7,2.6,19.1,1.8L19.1,1.8z
	"/>
</svg>
